<mxfile host="app.diagrams.net" modified="2024-05-25T16:53:38.165Z" agent="Mozilla/5.0 (Macintosh; Intel Mac OS X 10_15_7) AppleWebKit/537.36 (KHTML, like Gecko) Chrome/125.0.0.0 Safari/537.36" version="24.2.2" etag="LWHvGf4GB_zGKiGOjsWG" type="github">
  <diagram name="Page-1" id="0xehTU86QYi3wpy7weWj">
    <mxGraphModel>
      <root>
        <mxCell id="0" />
        <mxCell id="1" parent="0" />
      </root>
    </mxGraphModel>
  </diagram>
</mxfile>
